<svg width="108" height="64" viewBox="0 0 108 64" fill="none" xmlns="http://www.w3.org/2000/svg">
<path d="M72.7473 41.75H71.4995C71.3741 41.75 71.2508 41.7185 71.1407 41.6585C71.0306 41.5984 70.9373 41.5118 70.8694 41.4064C70.8015 41.301 70.761 41.1803 70.7518 41.0552C70.7426 40.9302 70.7648 40.8048 70.8165 40.6906L73.8381 34.0227L69.3011 33.9219L67.6464 35.9267C67.3309 36.3233 67.0792 36.5 66.437 36.5H65.597C65.464 36.5043 65.332 36.4764 65.212 36.4188C65.0921 36.3612 64.9878 36.2755 64.908 36.1691C64.7964 36.0186 64.6867 35.7636 64.7936 35.3998L65.7226 32.0717C65.7297 32.0469 65.7381 32.022 65.7475 31.9977C65.748 31.9953 65.748 31.9929 65.7475 31.9906C65.7378 31.9663 65.7295 31.9414 65.7226 31.9161L64.7926 28.5669C64.6919 28.2102 64.802 27.9608 64.9126 27.8141C64.9869 27.7155 65.0833 27.6357 65.194 27.5812C65.3047 27.5266 65.4267 27.4988 65.5501 27.5H66.437C66.9165 27.5 67.382 27.7152 67.6558 28.0625L69.2762 30.0336L73.8381 29.9661L70.8175 23.3098C70.7657 23.1957 70.7433 23.0704 70.7525 22.9453C70.7616 22.8203 70.802 22.6996 70.8698 22.5941C70.9376 22.4887 71.0308 22.402 71.1408 22.3419C71.2508 22.2817 71.3742 22.2502 71.4995 22.25H72.7609C72.9369 22.2535 73.1098 22.2967 73.2669 22.3762C73.4239 22.4557 73.561 22.5696 73.668 22.7094L79.5297 29.8344L82.2376 29.7631C82.4359 29.7523 82.9853 29.7486 83.1123 29.7486C85.7026 29.75 87.2495 30.5909 87.2495 32C87.2495 32.4434 87.0723 33.2656 85.8869 33.7887C85.187 34.0981 84.2533 34.2547 83.1114 34.2547C82.9858 34.2547 82.4378 34.2509 82.2367 34.2402L79.5292 34.168L73.653 41.293C73.5459 41.4321 73.4089 41.5454 73.2522 41.6246C73.0954 41.7037 72.9229 41.7465 72.7473 41.75Z" fill="black"/>
</svg>
